<?xml version="1.0" encoding="utf-8"?>
<!-- Generator: Adobe Illustrator 22.1.0, SVG Export Plug-In . SVG Version: 6.00 Build 0)  -->
<svg version="1.1" xmlns="http://www.w3.org/2000/svg" xmlns:xlink="http://www.w3.org/1999/xlink" x="0px" y="0px"
	 viewBox="0 0 1400 980" style="enable-background:new 0 0 1400 980;" xml:space="preserve">
<style type="text/css">
	.st0{clip-path:url(#SVGID_2_);}
	.st1{fill:#8462AF;}
	.st2{fill:#433672;}
	.st3{fill:#645296;}
	.st4{fill:#A08AD8;}
	.st5{fill:#FFFFFF;}
	.st6{fill:#EAE8FC;}
	.st7{fill:#9884CD;}
	.st8{fill:#072B33;}
	.st9{fill:#0C6881;}
	.st10{fill:#661A2A;}
	.st11{fill:#DB6167;}
	.st12{fill:#FD353A;}
	.st13{fill:#D32A37;}
	.st14{fill:#231D3F;}
	.st15{fill:#AD2A3A;}
	.st16{fill:#EF8288;}
	.st17{fill:#162D57;}
	.st18{fill:#FE7D7F;}
</style>
<g id="Background">
	<g>
		<defs>
			<rect id="SVGID_1_" x="0" width="1400" height="980"/>
		</defs>
		<clipPath id="SVGID_2_">
			<use xlink:href="#SVGID_1_"  style="overflow:visible;"/>
		</clipPath>
		<g class="st0">
			<g>
				<g>
					<rect x="-13" y="-17.6" class="st1" width="1422" height="1005.6"/>
				</g>
			</g>
			<g>
				<g>
					<rect x="913.5" y="251.7" class="st2" width="423.5" height="264.6"/>
				</g>
			</g>
			<g>
				<g>
					<rect x="932.7" y="271.7" class="st3" width="385.1" height="224.7"/>
				</g>
			</g>
			<g>
				<g>
					<rect x="932.7" y="271.7" class="st4" width="385.1" height="224.7"/>
				</g>
			</g>
			<g>
				<g>
					<rect x="1035" y="360.9" class="st1" width="35.6" height="33.8"/>
				</g>
			</g>
			<g>
				<g>
					<rect x="964" y="466.3" class="st1" width="35.6" height="30"/>
				</g>
			</g>
			<g>
				<g>
					<rect x="999.6" y="466.3" class="st1" width="35.6" height="30"/>
				</g>
			</g>
			<g>
				<g>
					<rect x="964" y="326.1" class="st1" width="141.7" height="34.8"/>
				</g>
			</g>
			<g>
				<g>
					<rect x="1105.7" y="396.7" class="st1" width="178.2" height="33.8"/>
				</g>
			</g>
			<g>
				<g>
					<rect x="932.7" y="271.7" class="st3" width="385.1" height="51.8"/>
				</g>
			</g>
			<path class="st2" d="M1324.2,326.1V321H922.8v5.1h38.1v32.3h-38.1v5.1h38.1v31.2h-38.1v5.1h38.1V427h-38.1v5.1h38.1v31.2h-38.1
				v5.1h38.1v35.2h6v-35.2h29.6v35.2h6v-35.2h29.6v35.2h6v-35.2h29.6v35.2h6v-35.2h29.6v35.2h6v-35.2h29.6v35.2h6v-35.2h29.6v35.2h6
				v-35.2h29.6v35.2h6v-35.2h29.6v35.2h6v-35.2h29.6v35.2h6v-35.2h37.3v-5.1h-37.3v-31.2h37.3V427h-37.3v-27.3h37.3v-5.1h-37.3
				v-31.2h37.3v-5.1h-37.3v-32.3H1324.2z M1073.5,363.4h29.6v31.2h-29.6V363.4z M1067.5,394.7H1038v-31.2h29.6V394.7z M1109.1,363.4
				h29.6v31.2h-29.6V363.4z M1144.7,363.4h29.6v31.2h-29.6V363.4z M1180.2,363.4h29.6v31.2h-29.6V363.4z M1180.2,358.3v-32.3h29.6
				v32.3H1180.2z M1174.2,358.3h-29.6v-32.3h29.6V358.3z M1138.7,358.3h-29.6v-32.3h29.6V358.3z M1103.1,358.3h-29.6v-32.3h29.6
				V358.3z M1067.5,358.3H1038v-32.3h29.6V358.3z M1032,358.3h-29.6v-32.3h29.6V358.3z M1032,363.4v31.2h-29.6v-31.2H1032z
				 M1032,399.8V427h-29.6v-27.3H1032z M1038,399.8h29.6V427H1038V399.8z M1073.5,399.8h29.6V427h-29.6V399.8z M1109.1,399.8h29.6
				V427h-29.6V399.8z M1144.7,399.8h29.6V427h-29.6V399.8z M1180.2,399.8h29.6V427h-29.6V399.8z M1215.8,399.8h29.6V427h-29.6V399.8
				z M1215.8,394.7v-31.2h29.6v31.2H1215.8z M1215.8,358.3v-32.3h29.6v32.3H1215.8z M966.9,326.1h29.6v32.3h-29.6V326.1z
				 M966.9,363.4h29.6v31.2h-29.6V363.4z M966.9,399.8h29.6V427h-29.6V399.8z M966.9,463.3v-31.2h29.6v31.2H966.9z M1002.4,463.3
				v-31.2h29.6v31.2H1002.4z M1038,463.3v-31.2h29.6v31.2H1038z M1073.5,463.3v-31.2h29.6v31.2H1073.5z M1109.1,463.3v-31.2h29.6
				v31.2H1109.1z M1144.7,463.3v-31.2h29.6v31.2H1144.7z M1180.2,463.3v-31.2h29.6v31.2H1180.2z M1215.8,463.3v-31.2h29.6v31.2
				H1215.8z M1280.9,463.3h-29.6v-31.2h29.6V463.3z M1280.9,427h-29.6v-27.3h29.6V427z M1280.9,394.7h-29.6v-31.2h29.6V394.7z
				 M1280.9,358.3h-29.6v-32.3h29.6V358.3z"/>
			<g>
				<g>
					<g>
						<rect x="921.3" y="-17.6" class="st2" width="9.8" height="237.4"/>
					</g>
				</g>
				<g>
					<g>
						<circle class="st5" cx="926.2" cy="238.9" r="35.5"/>
					</g>
					<g>
						<path d="M926.2,274.9c-19.8,0-36-16.1-36-36c0-19.8,16.1-36,36-36c19.8,0,36,16.1,36,36C962.2,258.8,946.1,274.9,926.2,274.9z
							 M926.2,204c-19.3,0-35,15.7-35,35s15.7,35,35,35c19.3,0,35-15.7,35-35S945.5,204,926.2,204z"/>
					</g>
				</g>
				<g>
					<g>
						<path class="st6" d="M843.5,246.7c3.9,42.3,39.5,75.4,82.7,75.4c43.3,0,78.8-33.1,82.7-75.4H843.5z"/>
					</g>
				</g>
				<g>
					<g>
						<circle class="st7" cx="926.2" cy="238.9" r="58"/>
					</g>
				</g>
				<g>
					<g>
						<circle class="st3" cx="926.2" cy="238" r="35.5"/>
					</g>
				</g>
				<g>
					<g>
						<path class="st2" d="M1009.3,246.7H843.1v-6.1c0-23.7,19.2-43,43-43h80.3c23.7,0,43,19.2,43,43V246.7z"/>
					</g>
				</g>
				<g>
					<g>
						<path class="st3" d="M970.7,198h-89l0,0c0-17.7,14.3-32,32-32h25C956.4,166,970.7,180.3,970.7,198L970.7,198z"/>
					</g>
				</g>
				<g>
					<g>
						<path class="st7" d="M939.7,166h-27v-7.6c0-7.4,6-13.5,13.5-13.5l0,0c7.4,0,13.5,6,13.5,13.5V166z"/>
					</g>
				</g>
			</g>
			<g>
				<g>
					<g>
						<circle class="st2" cx="196.7" cy="183.7" r="107.8"/>
					</g>
				</g>
				<g>
					<g>
						
							<ellipse transform="matrix(0.156 -0.9878 0.9878 0.156 -16.7552 350.4755)" class="st4" cx="196.7" cy="185" rx="85.2" ry="85.2"/>
					</g>
				</g>
				<g>
					<g>
						<g>
							<path class="st2" d="M199.4,187.5L199.4,187.5c-2.7-1.4-3.8-4.8-2.4-7.5l17.9-34.6c1.4-2.7,4.8-3.8,7.5-2.4l0,0
								c2.7,1.4,3.8,4.8,2.4,7.5l-17.9,34.6C205.4,187.8,202.1,188.9,199.4,187.5z"/>
						</g>
					</g>
					<g>
						<g>
							<path class="st2" d="M200.6,192.9L200.6,192.9c-2.4,1.9-5.9,1.5-7.8-1l-42.7-54.7c-1.9-2.4-1.5-5.9,1-7.8l0,0
								c2.4-1.9,5.9-1.5,7.8,1l42.7,54.7C203.5,187.5,203.1,191,200.6,192.9z"/>
						</g>
					</g>
					<g>
						<g>
							
								<ellipse transform="matrix(0.9261 -0.3773 0.3773 0.9261 -55.7657 88.4989)" class="st3" cx="198" cy="186.6" rx="14.1" ry="14.1"/>
						</g>
					</g>
				</g>
			</g>
		</g>
	</g>
</g>
<g id="object">
	<g>
		<g>
			<path class="st8" d="M697.3,892.1c-45.4-65.8-115.4-110.5-194.2-124L431,755.8c-13.9,23-14.4,51.7-1.4,75.2v0
				c18.8,34,52.4,57.1,90.9,62.5l96.1,13.5l-2.1,2.5c-18,21.1-25.2,49.4-19.5,76.5l81.7-0.5L697.3,892.1L697.3,892.1z"/>
		</g>
		<g>
			<path class="st9" d="M537.9,892.1c-45.4-65.8-115.4-110.5-194.2-124l-72.1-12.3c-13.9,23-14.4,51.7-1.4,75.2v0
				c18.8,34,52.4,57.1,90.9,62.5l96.1,13.5l-2.1,2.5c-18,21.1-25.2,49.4-19.5,76.5l81.7-0.5L537.9,892.1L537.9,892.1z"/>
		</g>
		<g>
			<rect x="375.8" y="875.6" class="st2" width="32.3" height="112.4"/>
		</g>
		<g>
			<path class="st2" d="M433.9,694H287.8c-28.9,0-52.3-23.4-52.3-52.3v-55.2c0-28.9,23.4-52.3,52.3-52.3h146.1
				c28.9,0,52.3,23.4,52.3,52.3v55.2C486.2,670.6,462.8,694,433.9,694z"/>
		</g>
		<g>
			<path class="st10" d="M647.5,567l97.6-83.1l25.8-31.8L767,471l52.4-35.3l-32.4,53.7l-24,5.4l-35.1,87.3
				c-11.8,43.1-42.4,78.5-83.4,96.4l0,0l-68.6-71.6c-51.6-41.3-82.6-103-84.9-169.1l0,0c-4.2-12.4-4-25.9,0.6-38.2l0,0
				c10.2-27.6,39.8-43,68.3-35.5l6.7,1.8c8.9,2.3,17.2,6.8,24,13l0,0c39.6,36,61.2,87.6,59,141.1L647.5,567z"/>
		</g>
		<g>
			<path class="st11" d="M767,471l3.9-18.9L745,483.9l-67.2,57.2c2.2,22.1,9.8,60.7,36.5,73.9c5.7-10.3,10.3-21.3,13.5-32.9
				l35.1-87.3l24-5.4l32.4-53.7L767,471z"/>
		</g>
		<g>
			<path class="st12" d="M477,334.3l-53.9-16.7c-50.2-15.5-104.8-1.9-141.8,35.4l0,0c-45.5,45.8-54.1,116.6-20.9,172v0
				c43.6,51.8,55,123.5,29.4,186.2l-18.2,44.6L425,810.5l129.4-57.5l-9.2-30.2c-23-75.9,3.9-158.2,67.4-205.8l0,0l-49.1-106.7
				C546.8,373.8,515.3,346.2,477,334.3z"/>
		</g>
		<g>
			<path class="st13" d="M314.1,566.4L314.1,566.4c-33.2-55.4-24.6-126.2,20.9-172l0,0c37-37.3,91.6-50.9,141.8-35.4l53.9,16.7
				c5.2,1.6,10.3,3.5,15.2,5.7c-17.5-22.1-41.4-38.6-68.8-47.1l-53.9-16.7c-50.2-15.5-104.8-1.9-141.8,35.4l0,0
				c-45.5,45.8-54.1,116.6-20.9,172h0c43.6,51.8,55,123.5,29.4,186.2l-18.2,44.6l61.6,21.9l10.3-25.2
				C369.1,689.9,357.8,618.2,314.1,566.4z"/>
		</g>
		<g>
			<g>
				<path class="st14" d="M438.9,337L438.9,337c-10.6,7.9-14.9,21.7-10.7,34.2l23,67.2l17.3-33.9l9.5,14.5l8.5-9.7l10.2,3.6
					l-10.5-45.1L438.9,337z"/>
			</g>
		</g>
		<g>
			<polygon class="st10" points="500.5,373.2 501.4,426.1 448.6,327.7 482.4,312.2 			"/>
		</g>
		<g>
			<g>
				<polyline class="st10" points="438.3,310.7 486.2,316.3 495.6,356.7 442.3,353.7 438.3,310.7 				"/>
			</g>
		</g>
		<g>
			<g>
				<polygon class="st15" points="471.7,421.7 500.5,373.2 487,324.7 459.8,364 				"/>
			</g>
		</g>
		<g>
			<g>
				<polygon class="st11" points="442.3,333.6 501.4,291.8 474.3,426.1 				"/>
			</g>
		</g>
		<g>
			<g>
				<path class="st14" d="M483.2,313.3c0,0-16.3,31.5,3.1,53l10.5-51.1L483.2,313.3z"/>
			</g>
		</g>
		<g>
			<path class="st16" d="M496.8,256.3l-20,53.5l19.7,31.6c3.4,5.4,11.4,5,14.2-0.8l9.7-20.8l8.2,5l0,0c8.5-17,11.2-36.2,7.9-54.9
				l-2.4-13.6H496.8z"/>
		</g>
		<g>
			<path class="st17" d="M510,256.3v17.2l0,0c-5.3,2.3-9.1,7.1-9.9,12.9l-0.8,5.5l-5-1.9v-24l-0.1,0.7c-3.2,15.3-9,29.9-17.3,43.2
				l0,0l0,0c-1.6-11.8-6.2-23-13.4-32.6l-1.7-2.2l0.9-8.4c2.5-22.8,21.2-40.4,44.1-41.5l0,0c8.5-0.4,16.9,1.5,24.4,5.6l35.8,25.7
				l-31.2,16.9L510,256.3z"/>
		</g>
		<g>
			<path class="st11" d="M496.4,270.3c1.1,5.3,0.7,20.4-4.6,21.4c-5.3,1.1-13.5-12.3-14.6-17.6c-1.1-5.3,2.4-10.4,7.7-11.5
				C490.2,261.6,495.3,265,496.4,270.3z"/>
		</g>
		<g>
			<g>
				<polygon class="st10" points="467.6,383.4 471.7,421.7 452,393.2 				"/>
			</g>
		</g>
		<g>
			<g>
				<polygon class="st15" points="438.3,310.7 426.6,348.7 454.6,428.7 467.6,383.4 				"/>
			</g>
		</g>
		<g>
			<g>
				<path class="st9" d="M474.8,430.4l-4.6,1.4c0,0-9.1,114.3-43.7,159.9l16.1,45.6l44.3-29C486.8,608.3,485.2,453.1,474.8,430.4z"
					/>
			</g>
		</g>
		<g>
			<polygon class="st17" points="462.5,416.5 486.1,413.7 478.3,434.3 466.8,434.1 			"/>
		</g>
		<g>
			<path class="st3" d="M446,715.7c-10-19.7-30.4-33.2-54.1-33.2c-23.6,0-44.1,13.5-54.1,33.2H446z"/>
		</g>
		<g>
			<path class="st4" d="M413.6,686.5c-17.8,4.3-29,21-33.6,29.2h66C439.2,702.3,427.7,691.9,413.6,686.5z"/>
		</g>
		<g>
			<g>
				<path class="st14" d="M367.1,432.1c0,0-51.8,267.6-92.4,84.2S367.1,432.1,367.1,432.1z"/>
			</g>
		</g>
		<g>
			<path class="st15" d="M216.9,604.9L349.1,653l86.3,44.8l-41.8-1.1c-17.3-0.5-33.6-8-45.2-20.7l0,0L246,689.8
				c-47.5,12.1-98,2.1-137.2-27.3l0,0L140,558.1c11.5-71.6,53.6-134.7,115.4-172.7l0,0c9.6-10.7,22.6-17.8,36.8-20.1v0
				c31.9-5.2,62.6,14.7,70.9,45.9l2,7.4c2.6,9.8,2.8,20.1,0.6,30l0,0c-12.8,57.3-50.5,105.9-102.7,132.8L216.9,604.9z"/>
		</g>
		<g>
			<path class="st10" d="M390,674.3l-0.1-0.2l-30.7-16L281,668.7c-43,10.9-88.5,1.9-124.1-24.7l0,0l28.2-94.3
				C195.4,485,233.5,428,289.4,393.6l0,0c8.7-9.7,20.4-16.1,33.2-18.2h0c4.8-0.8,9.6-0.9,14.3-0.5c-12.8-8.5-28.6-12.3-44.8-9.6l0,0
				c-14.2,2.3-27.2,9.4-36.8,20.1h0c-61.8,38-103.9,101.1-115.4,172.7l-31.2,104.3h0c39.3,29.4,89.7,39.4,137.2,27.3L348.4,676h0
				c11.6,12.8,28,20.2,45.2,20.7l41.8,1.1l-45.3-23.5L390,674.3z"/>
		</g>
		<g>
			<path class="st14" d="M349.1,653L237,612.2c-10.8,14.3-46.7,56.8-97.7,68.2c33.2,15,70.8,18.5,106.7,9.3L348.4,676h0
				c11.6,12.8,28,20.2,45.2,20.7l41.8,1.1L349.1,653z"/>
		</g>
		<g>
			<path class="st18" d="M349.1,653l-89.8-32.7c-20.2,14.2-41.5,37.5-45.3,74.3c10.7-0.5,21.5-2.1,32-4.8L348.4,676l2.7,2.9
				c9.9,10.9,23.8,17.3,38.5,17.7l45.8,1.2L349.1,653z"/>
		</g>
		<g>
			<g>
				<rect x="183.3" y="898.1" class="st3" width="45.3" height="89.9"/>
			</g>
		</g>
		<g>
			<g>
				<path class="st12" d="M240.4,607.5l34.2,12.8c0,0,5.9,36.8-56.6,78.7l-53.7-1.2C164.3,697.8,216.3,677.5,240.4,607.5z"/>
			</g>
		</g>
		<g>
			<path class="st13" d="M205.3,667.3c-21,22.7-41,30.6-41,30.6l53.7,1.2c21-14.1,34.2-27.6,42.6-39.3c-3.6,2.8-7.6,5.6-11.8,8.5
				L205.3,667.3z"/>
		</g>
		<g>
			<g>
				<path class="st13" d="M651.6,556l29.2-22.1c0,0,34.2,14.7,36.2,89.9l-29.7,44.7C687.3,668.5,697.9,613.8,651.6,556z"/>
			</g>
		</g>
		<g>
			<g>
				<rect x="1011.7" y="898.1" class="st3" width="45.3" height="89.9"/>
			</g>
		</g>
		<g>
			<g>
				<g>
					<g>
						<g>
							<polygon class="st2" points="171.7,682.3 165.4,685.6 99.6,560.3 105.9,557 							"/>
						</g>
					</g>
				</g>
				<g>
					<g>
						<g>
							<polygon class="st2" points="183.3,675.4 177,678.7 111.2,553.4 117.5,550.2 							"/>
						</g>
					</g>
				</g>
				<g>
					<g>
						<g>
							<polygon class="st2" points="103.4,554.5 100.1,548.2 225.3,482.4 228.6,488.7 							"/>
						</g>
					</g>
				</g>
				<g>
					<g>
						<g>
							<polygon class="st2" points="110.2,566.1 107,559.8 232.2,494 235.5,500.3 							"/>
						</g>
					</g>
				</g>
				<g>
					<g>
						<g>
							<path class="st3" d="M233.1,715.1c-5.2-22.7-25.5-39.7-49.8-39.7s-44.6,16.9-49.8,39.7H233.1z"/>
						</g>
					</g>
				</g>
				<g>
					<g>
						<g>
							<circle class="st2" cx="109.4" cy="557" r="16.4"/>
						</g>
					</g>
				</g>
			</g>
			<g>
				<g>
					<circle class="st7" cx="108.8" cy="557.9" r="7.7"/>
				</g>
			</g>
		</g>
		<g>
			<g>
				<g>
					<circle class="st7" cx="227.9" cy="493.3" r="14"/>
				</g>
			</g>
			<g>
				<g>
					<g>
						
							<ellipse transform="matrix(0.7071 -0.7071 0.7071 0.7071 -294.188 351.2202)" class="st7" cx="276.9" cy="530.7" rx="27.7" ry="27.7"/>
					</g>
				</g>
				<g>
					<g>
						<path class="st2" d="M321.2,483l-77.9,103.6v0c-16.9-12.7-20.3-36.7-7.6-53.6l31.9-42.4C280.3,473.7,304.3,470.3,321.2,483
							L321.2,483z"/>
					</g>
				</g>
				<g>
					<g>
						<path class="st3" d="M272.7,484.2l-41.7,55.5l0,0c-11-8.3-13.2-23.9-5-34.9l11.7-15.6C246.1,478.2,261.7,476,272.7,484.2
							L272.7,484.2z"/>
					</g>
				</g>
			</g>
		</g>
		<g>
			<g>
				<rect x="476.8" y="695" class="st4" width="223.2" height="22.5"/>
			</g>
		</g>
		<g>
			<g>
				<path class="st2" d="M1133.1,757.4H115.3c-11.7,0-21.2-9.5-21.2-21.2v0c0-11.7,9.5-21.2,21.2-21.2h1017.8
					c11.7,0,21.2,9.5,21.2,21.2v0C1154.3,747.9,1144.8,757.4,1133.1,757.4z"/>
			</g>
		</g>
		<g>
			<g>
				<path class="st7" d="M1041.9,915.1H197.1c-40.3,0-73-32.7-73-73v-85.2h990.8v85.2C1114.9,882.4,1082.2,915.1,1041.9,915.1z"/>
			</g>
		</g>
		<g>
			<g>
				<g>
					<path class="st3" d="M687.1,660H461.7c-13.3,0-24.1-10.8-24.1-24.1V529.8c0-13.3,10.8-24.1,24.1-24.1h225.4
						c13.3,0,24.1,10.8,24.1,24.1v106.1C711.2,649.2,700.4,660,687.1,660z"/>
				</g>
			</g>
			<g>
				<g>
					<path class="st4" d="M658.8,638.6H490.1v-74.9c0-15.3,12.4-27.7,27.7-27.7h113.4c15.3,0,27.7,12.4,27.7,27.7V638.6z"/>
				</g>
			</g>
			<g>
				<g>
					<path class="st2" d="M599.2,700.3h-49.6V591.9c0-13.7,11.1-24.8,24.8-24.8h0c13.7,0,24.8,11.1,24.8,24.8V700.3z"/>
				</g>
			</g>
			<g>
				<g>
					<path class="st3" d="M630.9,717.5h-113c-4.7,0-8.6-3.8-8.6-8.6l0,0c0-4.7,3.8-8.6,8.6-8.6h113c4.7,0,8.6,3.8,8.6,8.6l0,0
						C639.5,713.7,635.7,717.5,630.9,717.5z"/>
				</g>
			</g>
		</g>
		<g>
			<g>
				<path class="st7" d="M869.8,668.1L869.8,668.1c-11.6,0-20.9-9.4-20.9-20.9v-65.3c0-11.6,9.4-20.9,20.9-20.9l0,0
					c11.6,0,20.9,9.4,20.9,20.9v65.3C890.7,658.7,881.4,668.1,869.8,668.1z"/>
			</g>
		</g>
		<g>
			<g>
				<path class="st2" d="M895.5,673.4H844c-6.3,0-11.5-5.1-11.5-11.5v0c0-6.3,5.1-11.5,11.5-11.5h51.5c6.3,0,11.5,5.1,11.5,11.5v0
					C907,668.2,901.9,673.4,895.5,673.4z"/>
			</g>
		</g>
		<g>
			<g>
				<polygon class="st3" points="891.6,715.5 848,715.5 844.3,673.2 895.3,673.2 				"/>
			</g>
		</g>
		<g>
			<g>
				<rect x="941" y="534.3" class="st2" width="46.7" height="180.6"/>
			</g>
		</g>
		<g>
			<g>
				<rect x="987.7" y="534.3" class="st3" width="46.7" height="180.6"/>
			</g>
		</g>
		<g>
			<g>
				<rect x="1034.3" y="534.3" class="st4" width="46.7" height="180.6"/>
			</g>
		</g>
		<g>
			<g>
				<rect x="948.5" y="554" class="st7" width="31" height="109.5"/>
			</g>
		</g>
		<g>
			<g>
				<rect x="995.5" y="554" class="st7" width="31" height="109.5"/>
			</g>
		</g>
		<g>
			<g>
				<rect x="1042.2" y="554" class="st6" width="31" height="109.5"/>
			</g>
		</g>
		<g>
			<g>
				<circle class="st7" cx="964" cy="691" r="13"/>
			</g>
		</g>
		<g>
			<g>
				<circle class="st7" cx="1011" cy="691" r="13"/>
			</g>
		</g>
		<g>
			<g>
				<circle class="st6" cx="1057.7" cy="691" r="13"/>
			</g>
		</g>
		<g>
			<g>
				<g>
					<g>
						<path class="st7" d="M789.5,656.5c-12.4,0-22.5,10.1-22.5,22.5s10.1,22.5,22.5,22.5c12.4,0,22.5-10.1,22.5-22.5
							S801.9,656.5,789.5,656.5z M789.5,694c-8.3,0-15-6.7-15-15c0-8.3,6.7-15,15-15c8.3,0,15,6.7,15,15
							C804.5,687.2,797.8,694,789.5,694z"/>
					</g>
				</g>
			</g>
			<g>
				<g>
					<path class="st6" d="M776.6,716c7.9-20.5,11-42.7,9-64.7l-0.1-0.9h-60.4c-2.2,22.3,0.9,44.8,8.9,65.6H776.6z"/>
				</g>
			</g>
		</g>
		<g>
			<g>
				<polygon class="st3" points="781.1,659.2 770.3,659.2 766.8,671.2 768.1,687.6 787.1,685.1 785.8,671.2 				"/>
			</g>
		</g>
		<g>
			<g>
				<path class="st2" d="M754.6,650.4h-5.8c1.2-2.2,8.1-14.1,16.2-12.9c6.1,0.9,10.3,8.5,13.1,23.2c0.3,1.4-0.6,2.7-2,2.9
					c-0.2,0-0.3,0-0.5,0c-1.2,0-2.2-0.8-2.5-2c-3.1-16.5-7.3-18.9-8.9-19.2C761.1,642,757.1,646.6,754.6,650.4z"/>
			</g>
		</g>
		<g>
			<g>
				<g>
					<path class="st2" d="M852.9,629.6c-0.8,0-1.5-0.2-2.2-0.6l-17.3-9.8c-2.2-1.2-3-4-1.7-6.2c1.2-2.2,4-3,6.2-1.7l17.3,9.8
						c2.2,1.2,3,4,1.7,6.2C856.1,628.8,854.5,629.6,852.9,629.6z"/>
				</g>
			</g>
		</g>
		<g>
			<g>
				<path class="st2" d="M885.2,638.9c-0.9,0-1.9-0.4-2.6-1.1c-1.3-1.4-1.3-3.7,0.1-5l12.2-11.6c1.4-1.3,3.7-1.3,5,0.1
					c1.3,1.4,1.3,3.7-0.1,5L887.7,638C887,638.6,886.1,638.9,885.2,638.9z"/>
			</g>
		</g>
		<g>
			<g>
				<path class="st2" d="M877,627.1c-0.3,0.9-0.9,1.7-1.8,2.2c-1.7,0.9-3.9,0.2-4.8-1.6l-7.6-15c-0.9-1.7-0.2-3.9,1.6-4.8
					c1.7-0.9,3.9-0.2,4.8,1.6l7.6,15C877.2,625.3,877.3,626.2,877,627.1z"/>
			</g>
		</g>
		<g>
			<g>
				<path class="st2" d="M874.1,582.7c-0.9,0.3-1.9,0.3-2.8-0.2c-1.7-0.9-2.4-3-1.5-4.8l7.7-15c0.9-1.7,3-2.4,4.8-1.5
					c1.7,0.9,2.4,3,1.5,4.8l-7.7,15C875.6,581.8,874.9,582.4,874.1,582.7z"/>
			</g>
		</g>
		<g>
			<g>
				<path class="st2" d="M864.1,576.5c-0.4,0.9-1.1,1.6-2.1,1.9c-1.9,0.6-3.9-0.3-4.5-2.2l-5.6-15.9c-0.6-1.9,0.3-3.9,2.2-4.5
					c1.9-0.6,3.9,0.3,4.5,2.2l5.6,15.9C864.5,574.7,864.4,575.7,864.1,576.5z"/>
			</g>
		</g>
		<g>
			<g>
				<path class="st2" d="M853.8,601.2c-1.1,0-2.3-0.5-3.1-1.3l-9.9-10.6c-1.6-1.7-1.5-4.4,0.2-6c1.7-1.6,4.4-1.5,6,0.2l9.9,10.6
					c1.6,1.7,1.5,4.4-0.2,6C855.9,600.8,854.9,601.2,853.8,601.2z"/>
			</g>
		</g>
		<g>
			<g>
				<path class="st2" d="M879.4,602.3c-1.3,0-2.5-0.6-3.2-1.8c-1.1-1.8-0.5-4,1.2-5.1l12.2-7.5c1.8-1.1,4-0.5,5.1,1.2
					c1.1,1.8,0.5,4-1.2,5.1l-12.2,7.5C880.7,602.1,880.1,602.3,879.4,602.3z"/>
			</g>
		</g>
		<g>
			<path class="st7" d="M742.4,437.3L742.4,437.3c13.1,23,35.4,39.3,61.3,44.8l15.9,3.3l62.1-108.2l-9-0.8
				c-29.2-2.6-55.4-19.3-70.1-44.7l0,0L742.4,437.3z"/>
		</g>
		<g>
			<polyline class="st11" points="767,481.7 781,435 745,483.9 			"/>
		</g>
		<g>
			<g>
				<g>
					<path class="st2" d="M784.6,403.7c10.5,13.5,25.9,22.4,42.9,24.7c4,0.6,5.7-5.5,1.7-6.1c-16-2.2-30.1-10.3-40.1-23.1
						C786.6,396,782.1,400.5,784.6,403.7L784.6,403.7z"/>
				</g>
			</g>
			<g>
				<g>
					<path class="st2" d="M791.5,391.7c10.5,13.5,25.9,22.4,42.9,24.7c4,0.6,5.7-5.5,1.7-6.1c-16-2.2-30.1-10.3-40.1-23.1
						C793.5,384,789.1,388.6,791.5,391.7L791.5,391.7z"/>
				</g>
			</g>
			<g>
				<g>
					<path class="st2" d="M800.4,380c10.5,13.5,25.9,22.4,42.9,24.7c4,0.6,5.7-5.5,1.7-6.1c-16-2.2-30.1-10.3-40.1-23.1
						C802.4,372.3,797.9,376.8,800.4,380L800.4,380z"/>
				</g>
			</g>
			<g>
				<g>
					<path class="st2" d="M776,418c10.5,13.5,25.9,22.4,42.9,24.7c4,0.6,5.7-5.5,1.7-6.1c-16-2.2-30.1-10.3-40.1-23.1
						C778,410.3,773.5,414.8,776,418L776,418z"/>
				</g>
			</g>
		</g>
	</g>
</g>
</svg>
